<?xml version="1.0" standalone="no"?>
<!DOCTYPE svg PUBLIC "-//W3C//DTD SVG 20010904//EN"
 "http://www.w3.org/TR/2001/REC-SVG-20010904/DTD/svg10.dtd">
<svg version="1.0" xmlns="http://www.w3.org/2000/svg"
 width="631.000000pt" height="631.000000pt" viewBox="0 0 631.000000 631.000000"
 preserveAspectRatio="xMidYMid meet">
<metadata>
Created by potrace 1.14, written by Peter Selinger 2001-2017
</metadata>
<g transform="translate(0.000000,631.000000) scale(0.100000,-0.100000)"
fill="#000000" stroke="none">
<path d="M2479 6037 c-33 -20 -133 -103 -181 -149 -10 -10 -20 -18 -22 -18 -3
0 -17 -12 -33 -27 -32 -31 -51 -48 -208 -183 -60 -52 -115 -100 -121 -105 -6
-6 -40 -35 -74 -65 -35 -30 -77 -68 -94 -84 -17 -15 -48 -42 -69 -60 -21 -17
-51 -42 -66 -56 -32 -30 -118 -104 -247 -215 -32 -27 -68 -59 -80 -70 -77 -70
-94 -85 -94 -81 0 2 -15 -10 -33 -27 -37 -36 -75 -70 -179 -159 -75 -65 -117
-101 -174 -153 -18 -16 -42 -37 -52 -45 -20 -16 -126 -108 -172 -150 -15 -14
-52 -45 -81 -70 -29 -25 -63 -54 -75 -65 -12 -11 -46 -40 -74 -65 -29 -25 -64
-56 -79 -70 -16 -14 -52 -45 -81 -70 -112 -94 -169 -153 -180 -186 -15 -43 -6
-115 23 -204 8 -25 34 -106 57 -180 23 -74 46 -144 50 -155 5 -11 32 -90 60
-175 28 -85 55 -164 59 -175 5 -11 12 -29 14 -40 4 -16 108 -317 130 -375 32
-88 46 -130 41 -130 -4 0 -2 -6 3 -13 8 -9 31 -67 38 -97 1 -3 4 -12 8 -20 3
-8 13 -37 22 -65 10 -27 21 -59 27 -70 5 -12 10 -27 12 -35 2 -8 8 -28 14 -43
7 -16 12 -30 12 -33 0 -4 32 -96 165 -469 31 -88 58 -167 60 -175 2 -8 21 -60
41 -115 20 -55 49 -138 66 -185 45 -129 77 -173 151 -211 51 -27 114 -31 182
-14 31 8 62 12 68 8 7 -3 62 -39 122 -78 61 -40 142 -89 180 -110 39 -22 72
-43 73 -47 2 -4 9 -8 16 -8 6 0 54 -22 106 -48 92 -47 281 -129 315 -138 6 -1
24 -8 40 -15 17 -7 32 -13 35 -14 3 -1 43 -14 90 -29 101 -33 336 -92 400
-101 25 -3 52 -8 60 -10 8 -2 38 -6 65 -9 28 -3 77 -9 110 -13 124 -16 554 -8
625 12 8 2 35 7 60 10 25 3 63 9 85 15 22 5 41 7 44 5 2 -2 12 0 22 6 10 5 31
11 46 13 51 8 306 81 335 97 10 5 18 7 18 3 0 -3 6 -2 13 4 6 5 55 26 107 47
188 74 381 176 560 294 47 31 92 61 100 68 251 195 344 281 524 480 21 22 47
54 59 70 12 16 28 36 35 44 56 62 262 376 262 399 0 5 4 10 10 10 5 0 9 3 8 7
0 5 31 74 70 155 40 81 72 153 72 160 0 8 4 18 9 24 5 5 19 38 31 74 12 36 26
74 30 85 22 53 80 256 96 335 3 14 8 34 11 45 3 11 7 31 9 45 1 14 5 36 8 50
3 13 8 42 12 64 3 22 7 43 9 46 2 3 6 39 10 79 4 41 9 84 11 95 16 86 24 494
11 634 -9 100 -42 157 -117 201 -35 20 -41 20 -507 21 -253 0 -433 4 -433 9 0
5 27 50 60 100 33 50 60 95 60 101 0 5 4 10 9 10 5 0 14 14 21 30 7 17 15 30
19 30 3 0 12 13 19 28 6 16 21 38 32 50 11 12 20 23 20 26 0 6 145 226 159
243 6 7 16 24 23 38 6 14 15 25 19 25 4 0 11 9 14 20 3 11 12 26 19 32 6 7 29
40 50 73 20 33 45 71 55 85 44 60 141 211 141 219 0 5 3 11 8 13 10 5 52 66
52 77 0 5 4 11 8 13 4 2 19 21 32 43 13 22 28 45 33 50 13 17 116 179 127 200
12 24 33 58 40 65 8 8 76 121 95 159 51 101 9 240 -91 302 -81 50 -1 48 -1902
48 l-1777 1 -36 -23z"/>
</g>
</svg>
